<svg width="3269" height="436" viewBox="0 0 3269 436" fill="none" xmlns="http://www.w3.org/2000/svg">
<path d="M309.881 253.578C309.881 268.715 307.928 282.061 304.021 293.617C300.278 305.173 294.907 315.183 287.908 323.646C281.072 332.11 272.934 339.19 263.494 344.887C254.054 350.583 243.719 355.141 232.488 358.559C221.421 361.977 209.62 364.418 197.088 365.883C184.718 367.348 172.104 368.08 159.246 368.08C142.319 368.08 126.694 366.778 112.371 364.174C98.0482 361.732 84.5391 357.826 71.8438 352.455C59.3112 346.921 47.1855 339.841 35.4668 331.215C23.9108 322.589 12.3548 312.09 0.798828 299.721L50.6035 249.184C55.1608 260.414 61.4271 270.831 69.4023 280.434C77.3776 289.874 86.0853 298.012 95.5254 304.848C105.128 311.684 115.057 317.055 125.311 320.961C135.564 324.867 145.249 326.82 154.363 326.82C165.105 326.82 175.197 326.088 184.637 324.623C194.077 322.995 202.296 320.391 209.295 316.811C216.294 313.23 221.746 308.51 225.652 302.65C229.721 296.628 231.756 289.141 231.756 280.189C231.756 273.354 230.21 267.494 227.117 262.611C224.025 257.729 219.956 253.578 214.91 250.16C210.027 246.579 204.412 243.568 198.064 241.127C191.717 238.686 185.206 236.651 178.533 235.023C172.023 233.233 165.594 231.687 159.246 230.385C152.898 228.92 147.283 227.455 142.4 225.99C132.798 223.223 122.788 220.294 112.371 217.201C101.954 213.946 91.7005 210.284 81.6094 206.215C71.5182 202.146 61.9154 197.507 52.8008 192.299C43.849 186.928 35.9551 180.661 29.1191 173.5C22.2832 166.176 16.8307 157.794 12.7617 148.354C8.69271 138.751 6.6582 127.764 6.6582 115.395C6.6582 100.583 8.44857 87.4811 12.0293 76.0879C15.7728 64.5319 20.9811 54.5221 27.6543 46.0586C34.3275 37.5951 42.2214 30.515 51.3359 24.8184C60.4505 18.959 70.4603 14.3203 81.3652 10.9023C92.2702 7.32161 103.826 4.79883 116.033 3.33398C128.403 1.70638 141.017 0.892578 153.875 0.892578C171.453 0.892578 187.404 2.52018 201.727 5.77539C216.212 9.0306 229.559 13.6693 241.766 19.6914C253.973 25.7135 265.122 32.9564 275.213 41.4199C285.467 49.7207 295.07 58.998 304.021 69.252L254.217 119.789C250.311 108.07 244.858 97.4909 237.859 88.0508C231.023 78.6107 223.374 70.554 214.91 63.8809C206.447 57.0449 197.576 51.8366 188.299 48.2559C179.021 44.5124 170.07 42.6406 161.443 42.6406C150.213 42.6406 139.878 43.4544 130.438 45.082C120.997 46.5469 112.859 49.0697 106.023 52.6504C99.3503 56.0684 94.1419 60.7884 90.3984 66.8105C86.6549 72.6699 84.7832 79.9941 84.7832 88.7832C84.7832 95.7819 86.1667 101.723 88.9336 106.605C91.7005 111.488 95.3626 115.639 99.9199 119.057C104.64 122.475 109.93 125.323 115.789 127.602C121.648 129.717 127.671 131.589 133.855 133.217C140.203 134.844 146.388 136.309 152.41 137.611C158.595 138.751 164.21 140.053 169.256 141.518C179.021 144.285 189.275 147.214 200.018 150.307C210.76 153.399 221.339 157.061 231.756 161.293C242.173 165.362 252.101 170.082 261.541 175.453C270.981 180.824 279.282 187.253 286.443 194.74C293.605 202.064 299.301 210.609 303.533 220.375C307.765 229.978 309.881 241.046 309.881 253.578ZM530.096 361H433.172V54.3594H337.469V9.4375H625.799V54.3594H530.096V361ZM928.045 361H675.604V9.4375H928.045V54.3594H772.527V163.002H892.645V207.68H772.527V316.078H928.045V361ZM1240.54 361H988.104V9.4375H1085.03V316.322H1240.54V361ZM1538.88 361H1286.44V9.4375H1383.37V316.322H1538.88V361ZM1919.5 192.787V197.426C1919.17 211.098 1917.71 225.258 1915.11 239.906C1912.66 254.555 1909.16 269.203 1904.61 283.852C1900.05 298.5 1894.6 312.986 1888.25 327.309C1881.9 341.632 1874.74 355.303 1866.77 368.324C1858.95 381.508 1850.49 393.796 1841.38 405.189C1832.26 416.745 1822.66 426.918 1812.57 435.707L1776.19 414.711C1781.89 405.108 1787.01 394.61 1791.57 383.217C1796.29 371.986 1800.52 360.186 1804.27 347.816C1808.01 335.447 1811.18 322.751 1813.79 309.73C1816.55 296.71 1818.83 283.77 1820.62 270.912C1822.41 258.054 1823.72 245.44 1824.53 233.07C1825.51 220.538 1825.99 208.656 1825.99 197.426C1825.99 188.637 1825.91 178.708 1825.75 167.641C1825.75 156.41 1825.1 145.017 1823.8 133.461C1822.66 121.905 1820.7 110.674 1817.94 99.7695C1815.17 88.7018 1811.02 78.8548 1805.49 70.2285C1800.12 61.6022 1793.12 54.6849 1784.49 49.4766C1776.03 44.2682 1765.45 41.6641 1752.75 41.6641C1741.52 41.6641 1731.84 43.6172 1723.7 47.5234C1715.72 51.2669 1708.89 56.3939 1703.19 62.9043C1697.66 69.252 1693.18 76.6576 1689.76 85.1211C1686.51 93.5846 1683.9 102.536 1681.95 111.977C1680.16 121.254 1678.94 130.694 1678.29 140.297C1677.8 149.737 1677.56 158.689 1677.56 167.152V235.268H1782.78V275.551H1677.56V361H1580.63V182.289C1580.63 156.736 1584.7 132.973 1592.84 111C1600.98 89.0273 1612.45 69.9844 1627.26 53.8711C1642.24 37.5951 1660.14 24.8997 1680.97 15.7852C1701.97 6.50781 1725.33 1.86914 1751.04 1.86914C1768.46 1.86914 1784.73 4.39193 1799.87 9.4375C1815.17 14.3203 1829.09 21.1562 1841.62 29.9453C1854.15 38.5716 1865.3 48.9069 1875.07 60.9512C1884.99 72.8327 1893.21 85.8535 1899.72 100.014C1906.4 114.174 1911.44 129.148 1914.86 144.936C1918.28 160.723 1919.83 176.674 1919.5 192.787ZM2079.66 361H1982.73V9.4375H2155.58C2171.86 9.4375 2187.57 11.3906 2202.7 15.2969C2217.84 19.0404 2231.19 25.0625 2242.74 33.3633C2254.46 41.5013 2263.74 52.0807 2270.57 65.1016C2277.57 78.1224 2281.07 93.9102 2281.07 112.465C2281.07 126.951 2277.98 140.622 2271.79 153.48C2265.77 166.176 2257.63 177.569 2247.38 187.66C2237.29 197.589 2225.65 205.889 2212.47 212.562C2199.29 219.073 2185.61 223.386 2171.45 225.502C2177.8 236.244 2184.39 246.417 2191.23 256.02C2198.23 265.622 2205.23 274.656 2212.22 283.119C2219.39 291.42 2226.47 299.151 2233.46 306.312C2240.46 313.311 2247.14 319.74 2253.48 325.6C2268.46 339.271 2283.27 351.072 2297.92 361H2177.07C2167.3 351.723 2158.03 340.574 2149.24 327.553C2141.75 316.485 2134.18 302.813 2126.53 286.537C2119.04 270.098 2113.27 251.137 2109.2 229.652H2079.66V361ZM2182.68 112.465C2182.68 88.8646 2176.91 71.5306 2165.35 60.4629C2153.96 49.3952 2136.79 43.8613 2113.84 43.8613H2079.66V196.449H2113.84C2126.04 196.449 2136.46 194.171 2145.09 189.613C2153.88 184.893 2161.04 178.708 2166.57 171.059C2172.1 163.246 2176.17 154.294 2178.78 144.203C2181.38 134.112 2182.68 123.533 2182.68 112.465ZM2440.5 361H2343.57V9.4375H2440.5V361ZM2887.27 184.73C2887.27 213.051 2882.39 238.604 2872.62 261.391C2862.86 284.014 2849.35 303.22 2832.1 319.008C2814.85 334.796 2794.42 346.921 2770.82 355.385C2747.22 363.848 2721.66 368.08 2694.16 368.08C2666.65 368.08 2641.1 363.848 2617.5 355.385C2593.9 346.921 2573.47 334.796 2556.22 319.008C2538.97 303.22 2525.46 284.014 2515.69 261.391C2505.93 238.604 2501.04 213.051 2501.04 184.73C2501.04 155.922 2505.84 130.206 2515.45 107.582C2525.21 84.7956 2538.64 65.5898 2555.73 49.9648C2572.98 34.1771 2593.41 22.1328 2617.01 13.832C2640.61 5.36849 2666.33 1.13672 2694.16 1.13672C2721.99 1.13672 2747.71 5.36849 2771.31 13.832C2794.91 22.1328 2815.25 34.1771 2832.34 49.9648C2849.59 65.5898 2863.02 84.7956 2872.62 107.582C2882.39 130.206 2887.27 155.922 2887.27 184.73ZM2788.64 184.73C2788.64 173.988 2788.15 163.002 2787.18 151.771C2786.2 140.541 2784.41 129.636 2781.8 119.057C2779.2 108.477 2775.62 98.5488 2771.06 89.2715C2766.67 79.9941 2760.97 71.9375 2753.97 65.1016C2746.97 58.1029 2738.51 52.6504 2728.58 48.7441C2718.82 44.6751 2707.34 42.6406 2694.16 42.6406C2680.81 42.6406 2669.17 44.6751 2659.25 48.7441C2649.32 52.6504 2640.85 58.0215 2633.86 64.8574C2626.86 71.6934 2621.16 79.75 2616.77 89.0273C2612.37 98.3047 2608.87 108.233 2606.27 118.812C2603.83 129.229 2602.12 140.134 2601.14 151.527C2600.16 162.758 2599.68 173.826 2599.68 184.73C2599.68 195.473 2600.16 206.459 2601.14 217.689C2602.12 228.92 2603.91 239.825 2606.51 250.404C2609.12 260.821 2612.62 270.668 2617.01 279.945C2621.57 289.223 2627.35 297.361 2634.34 304.359C2641.34 311.195 2649.72 316.648 2659.49 320.717C2669.42 324.786 2680.97 326.82 2694.16 326.82C2707.02 326.82 2718.25 324.786 2727.85 320.717C2737.45 316.485 2745.75 310.87 2752.75 303.871C2759.75 296.71 2765.53 288.49 2770.09 279.213C2774.81 269.773 2778.47 259.844 2781.07 249.428C2783.84 238.848 2785.79 228.025 2786.93 216.957C2788.07 205.889 2788.64 195.147 2788.64 184.73ZM2992.5 361H2947.58V9.4375H3010.56L3224.19 250.893V9.4375H3268.87V361H3205.88L2992.5 119.789V361Z" fill="white"/>
</svg>
